HIERARCHY
ROOT Joint1
{
	OFFSET 0.000000 0.000000 0.000000
	CHANNELS 6 Xposition Yposition Zposition Xrotation Yrotation Zrotation
	JOINT Joint2
	{
		OFFSET -0.000000 0.000000 1.456275
		CHANNELS 6 Xposition Yposition Zposition Xrotation Yrotation Zrotation
		JOINT Joint3
		{
			OFFSET -0.000000 0.000002 1.471446
			CHANNELS 6 Xposition Yposition Zposition Xrotation Yrotation Zrotation
			JOINT Joint4
			{
				OFFSET 0.625745 0.000000 0.917755
				CHANNELS 6 Xposition Yposition Zposition Xrotation Yrotation Zrotation
				JOINT Joint5
				{
					OFFSET -0.629534 0.000001 0.940221
					CHANNELS 6 Xposition Yposition Zposition Xrotation Yrotation Zrotation
					JOINT Joint6
					{
						OFFSET -0.000001 0.113772 1.960660
						CHANNELS 6 Xposition Yposition Zposition Xrotation Yrotation Zrotation
						JOINT Joint7
						{
							OFFSET -0.669733 -0.113771 0.388340
							CHANNELS 6 Xposition Yposition Zposition Xrotation Yrotation Zrotation
							End Site
							{
								OFFSET 0.005509 0.005509 0.438980
							}
						}
					}
				}
			}
		}
	}
}
MOTION
Frames: 12
Frame Time: 0.041667
0.000000 0.000000 0.000000 -0.000000 1.019410 72.568472 -0.000000 0.000000 1.456275 -0.000003 53.607303 -0.000001 -0.000000 0.000002 1.471446 -0.000006 -1.133467 -111.509511 0.625745 0.000000 0.917755 0.000003 137.027119 0.000001 -0.629533 0.000001 0.940220 -0.000001 1.709738 113.530195 -0.000001 0.113772 1.960660 -88.303882 101.854738 0.000011 -0.669733 -0.113771 0.388340 -0.176969 1.680840 -13.692498 
0.000000 0.000000 0.000000 -0.000000 1.019410 72.539054 -0.000000 0.000000 1.456275 -0.000002 53.567340 -0.000000 -0.000000 0.000002 1.471446 -0.000006 -1.133467 -111.464309 0.625745 0.000001 0.917755 0.000002 137.026285 0.000001 -0.629534 0.000001 0.940221 0.000001 1.709737 113.484160 -0.000001 0.113772 1.960660 -88.303855 101.849930 -0.000001 -0.669733 -0.113771 0.388341 -0.176056 1.681398 -13.632273 
0.000000 0.000000 0.000000 -0.000000 1.019410 72.484706 -0.000000 0.000000 1.456275 0.000002 53.493505 0.000001 -0.000001 0.000002 1.471445 -0.000008 -1.133466 -111.380844 0.625744 0.000001 0.917755 0.000002 137.024796 0.000003 -0.629533 0.000001 0.940221 0.000001 1.709738 113.399131 -0.000001 0.113772 1.960661 -88.303868 101.841044 0.000003 -0.669733 -0.113771 0.388340 -0.174369 1.682424 -13.521037 
0.000000 0.000000 0.000000 -0.000000 1.019410 72.401112 -0.000000 0.000000 1.456275 -0.000001 53.379936 -0.000000 -0.000001 0.000002 1.471446 -0.000006 -1.133468 -111.252423 0.625745 0.000000 0.917755 0.000001 137.022488 0.000001 -0.629534 0.000001 0.940220 0.000000 1.709737 113.268312 -0.000001 0.113772 1.960661 -88.303868 101.827363 0.000007 -0.669733 -0.113771 0.388340 -0.171780 1.684015 -13.349901 
0.000000 0.000000 0.000000 -0.000000 1.019410 72.283899 -0.000000 0.000000 1.456275 0.000001 53.220711 -0.000001 -0.000000 0.000002 1.471446 -0.000008 -1.133469 -111.072379 0.625744 0.000000 0.917754 -0.000001 137.019264 0.000001 -0.629533 0.000000 0.940220 -0.000001 1.709737 113.084935 -0.000001 0.113772 1.960660 -88.303875 101.808184 0.000011 -0.669733 -0.113771 0.388340 -0.168158 1.686259 -13.109990 
0.000000 0.000000 0.000000 -0.000000 1.019410 72.128751 -0.000000 0.000000 1.456275 -0.000001 53.009942 0.000000 -0.000000 0.000002 1.471446 -0.000007 -1.133469 -110.834060 0.625745 0.000000 0.917755 0.000006 137.014974 0.000001 -0.629533 0.000001 0.940220 -0.000002 1.709737 112.842170 -0.000001 0.113772 1.960660 -88.303862 101.782803 0.000003 -0.669733 -0.113771 0.388341 -0.163375 1.689250 -12.792405 
0.000000 0.000000 0.000000 -0.000000 1.019410 71.931318 -0.000000 0.000000 1.456275 -0.000001 52.741724 -0.000001 -0.000000 0.000002 1.471446 -0.000006 -1.133464 -110.530793 0.625744 0.000000 0.917755 0.000004 137.009538 0.000003 -0.629534 0.000001 0.940221 -0.000002 1.709736 112.533254 -0.000000 0.113772 1.960660 -88.303855 101.750510 0.000012 -0.669733 -0.113771 0.388340 -0.157317 1.693095 -12.388272 
0.000000 0.000000 0.000000 -0.000000 1.019410 71.687268 -0.000000 0.000000 1.456275 0.000000 52.410179 0.000000 -0.000000 0.000002 1.471446 -0.000006 -1.133465 -110.155904 0.625745 0.000001 0.917755 0.000001 137.002789 -0.000006 -0.629533 0.000001 0.940221 0.000000 1.709736 112.151399 -0.000001 0.113772 1.960661 -88.303855 101.710567 0.000007 -0.669733 -0.113771 0.388340 -0.149864 1.697907 -11.888702 
0.000000 0.000000 0.000000 -0.000000 1.019410 71.392245 -0.000000 0.000000 1.456275 0.000001 52.009384 0.000002 -0.000000 0.000002 1.471445 -0.000008 -1.133460 -109.702721 0.625745 0.000000 0.917755 0.000001 136.994661 0.000004 -0.629534 0.000001 0.940221 -0.000001 1.709736 111.689787 -0.000001 0.113772 1.960661 -88.303868 101.662291 -0.000005 -0.669733 -0.113771 0.388340 -0.140909 1.703811 -11.284810 
0.000000 0.000000 0.000000 -0.000000 1.019410 71.041918 -0.000000 0.000000 1.456275 0.000001 51.533470 0.000004 -0.000000 0.000002 1.471446 -0.000006 -1.133460 -109.164598 0.625745 0.000000 0.917755 0.000001 136.985004 -0.000003 -0.629534 0.000001 0.940221 0.000002 1.709737 111.141644 -0.000001 0.113772 1.960661 -88.303875 101.604979 0.000020 -0.669733 -0.113771 0.388340 -0.130355 1.710943 -10.567704 
0.000000 0.000000 0.000000 -0.000000 1.019410 70.631949 -0.000000 0.000000 1.456275 -0.000001 50.976523 -0.000000 -0.000000 0.000002 1.471446 -0.000009 -1.133460 -108.534841 0.625745 0.000001 0.917755 0.000006 136.973706 0.000003 -0.629534 0.000001 0.940221 0.000000 1.709736 110.500173 -0.000001 0.113772 1.960661 -88.303875 101.537900 -0.000001 -0.669733 -0.113771 0.388340 -0.118121 1.719463 -9.728505 
0.000000 0.000000 0.000000 -0.000000 1.019410 70.157989 -0.000000 -0.000000 1.456275 0.000001 50.332648 -0.000000 -0.000000 0.000002 1.471446 -0.000007 -1.133463 -107.806804 0.625744 0.000000 0.917755 0.000003 136.960633 -0.000001 -0.629534 0.000001 0.940221 -0.000003 1.709736 109.758585 -0.000001 0.113772 1.960660 -88.303868 101.460350 0.000012 -0.669733 -0.113771 0.388340 -0.104139 1.729528 -8.758324 
